<?xml version="1.0" standalone="no"?>
<!DOCTYPE svg PUBLIC "-//W3C//DTD SVG 20010904//EN"
 "http://www.w3.org/TR/2001/REC-SVG-20010904/DTD/svg10.dtd">
<svg version="1.0" xmlns="http://www.w3.org/2000/svg"
 width="180.000000pt" height="180.000000pt" viewBox="0 0 180.000000 180.000000"
 preserveAspectRatio="xMidYMid meet">

<g transform="translate(0.000000,180.000000) scale(0.100000,-0.100000)"
fill="#000000" stroke="none">
<path d="M828 1783 c-39 -43 -33 -79 36 -224 36 -77 45 -122 26 -134 -5 -3
-10 -11 -10 -16 0 -6 5 -7 10 -4 12 7 24 -20 16 -34 -4 -6 -13 -8 -21 -5 -8 4
-12 11 -8 17 4 6 1 7 -6 2 -18 -11 -41 -69 -40 -102 0 -15 3 -22 6 -15 6 16
23 16 23 -1 0 -13 -76 -77 -92 -77 -4 0 -8 -8 -8 -18 0 -22 71 -82 96 -82 14
0 15 -3 6 -12 -17 -17 -15 -41 2 -35 16 6 30 -19 16 -28 -6 -4 -10 -13 -10
-21 0 -11 6 -13 20 -9 19 6 27 -5 14 -18 -4 -3 -7 -41 -8 -84 -1 -72 -4 -82
-40 -138 -85 -131 -92 -173 -44 -248 l32 -50 -21 -36 c-24 -42 -33 -81 -37
-158 -1 -29 -7 -58 -13 -64 -15 -15 -75 14 -113 55 -61 67 -163 193 -187 234
-18 31 -31 42 -49 42 -23 0 -24 2 -24 81 0 67 4 88 23 118 12 20 28 52 36 71
18 47 26 140 12 140 -6 0 -11 -7 -11 -15 0 -15 -58 -125 -70 -135 -4 -3 -10
-16 -13 -30 -8 -31 -53 -50 -120 -50 -56 0 -100 32 -100 73 0 17 -8 32 -23 42
-32 21 -32 69 1 117 14 20 25 42 25 47 0 14 -17 14 -25 1 -11 -19 -30 -10 -54
25 -27 40 -41 45 -41 14 0 -11 -4 -29 -10 -39 -5 -10 -12 -64 -15 -120 -5
-116 4 -149 59 -208 20 -20 36 -42 36 -48 0 -14 85 -94 100 -94 21 0 90 -51
90 -66 0 -8 17 -46 39 -82 68 -118 171 -325 171 -344 0 -17 24 -18 550 -18
l549 0 16 30 c22 43 19 140 -10 298 -24 127 -25 192 -5 192 12 0 24 -103 15
-130 -5 -16 -3 -21 6 -18 22 7 31 86 19 148 -19 91 -93 323 -112 350 -10 14
-21 40 -24 59 -6 30 -5 33 11 24 10 -6 27 -32 39 -59 12 -27 43 -81 69 -121
26 -40 55 -96 63 -125 41 -135 56 -179 61 -174 3 3 1 18 -5 33 -6 15 -17 57
-23 93 -7 36 -25 94 -40 130 -28 64 -28 65 -9 79 24 16 26 64 6 112 -17 39
-88 127 -119 148 -66 43 -122 122 -115 162 3 17 5 17 28 4 14 -8 39 -21 55
-29 41 -20 116 -75 136 -100 47 -59 58 -70 63 -65 33 33 -174 217 -250 222
-31 2 -47 20 -111 126 -21 35 -56 77 -78 93 -22 16 -43 35 -47 43 -12 20 20
113 65 190 22 39 42 73 44 78 2 4 -6 7 -19 7 -18 0 -32 -15 -61 -65 -21 -35
-47 -85 -57 -112 -14 -36 -23 -47 -37 -45 -65 12 -74 16 -79 37 -6 24 8 135
21 168 5 13 2 17 -13 17 -24 0 -28 -12 -38 -102 -3 -38 -12 -73 -20 -79 -12
-10 -14 4 -14 85 0 53 -4 96 -9 96 -10 0 -21 -97 -21 -182 0 -45 -4 -60 -16
-65 -38 -14 -65 33 -102 177 -19 69 -36 84 -64 53z m37 -85 c9 -24 28 -66 42
-95 24 -49 25 -89 2 -81 -13 4 -89 172 -89 198 0 35 27 22 45 -22z m196 -191
c-8 -8 -11 -7 -11 4 0 20 13 34 18 19 3 -7 -1 -17 -7 -23z m-31 8 c0 -8 -4
-15 -10 -15 -5 0 -10 7 -10 15 0 8 5 15 10 15 6 0 10 -7 10 -15z m90 6 c0 -5
-7 -11 -14 -14 -10 -4 -13 -1 -9 9 6 15 23 19 23 5z m-134 -37 c-5 -14 -9 -15
-19 -5 -9 9 -9 14 3 21 18 11 24 6 16 -16z m178 2 c-3 -7 -11 -13 -19 -13 -18
0 -19 9 -3 25 14 14 29 6 22 -12z m-103 -19 c-1 -12 -15 -9 -19 4 -3 6 1 10 8
8 6 -3 11 -8 11 -12z m157 -4 c-4 -22 -38 -30 -38 -10 0 14 13 24 33 26 5 1 7
-7 5 -16z m-198 -2 c0 -5 -7 -11 -15 -15 -9 -3 -15 0 -15 9 0 8 7 15 15 15 8
0 15 -4 15 -9z m-77 -16 c0 -6 -7 -11 -16 -13 -12 -3 -15 1 -11 13 7 17 25 17
27 0z m184 -1 c-3 -3 -12 -4 -19 -1 -8 3 -5 6 6 6 11 1 17 -2 13 -5z m-157
-18 c0 -3 -4 -8 -10 -11 -5 -3 -10 -1 -10 4 0 6 5 11 10 11 6 0 10 -2 10 -4z
m119 -22 c13 -12 12 -17 -9 -39 -13 -14 -30 -25 -37 -25 -8 0 -11 -5 -8 -11 4
-6 -3 -5 -15 3 -17 10 -24 10 -27 1 -2 -7 -11 -9 -19 -6 -8 3 -14 -1 -14 -9 0
-10 9 -13 33 -10 21 2 38 -2 46 -12 7 -8 19 -12 27 -9 8 3 14 1 14 -3 -1 -15
-27 -44 -40 -44 -10 0 -10 3 0 15 18 22 8 27 -34 20 -31 -6 -34 -10 -25 -26 7
-14 6 -19 -4 -19 -20 0 -40 27 -31 41 4 8 3 9 -5 5 -19 -12 -24 22 -7 49 9 13
16 30 16 38 0 19 46 61 59 53 5 -4 13 -2 16 4 8 13 44 4 64 -16z m165 17 c9
-15 -23 -36 -36 -23 -5 5 -7 15 -4 21 9 13 33 14 40 2z m-322 -53 c-7 -7 -12
-8 -12 -2 0 14 12 26 19 19 2 -3 -1 -11 -7 -17z m268 12 c0 -5 -5 -10 -11 -10
-5 0 -7 5 -4 10 3 6 8 10 11 10 2 0 4 -4 4 -10z m89 -19 c12 -21 5 -31 -20
-31 -19 0 -29 17 -21 38 6 18 30 15 41 -7z m-141 -36 c21 -44 17 -60 -8 -30
-8 9 -21 13 -32 9 -10 -3 -26 0 -34 7 -13 10 -12 15 7 36 32 33 42 29 67 -22z
m82 -1 c0 -8 -7 -14 -15 -14 -15 0 -21 21 -9 33 10 9 24 -2 24 -19z m-350 -5
c0 -5 -7 -9 -15 -9 -9 0 -12 6 -9 15 6 15 24 11 24 -6z m30 1 c0 -5 -5 -10
-11 -10 -5 0 -7 5 -4 10 3 6 8 10 11 10 2 0 4 -4 4 -10z m385 -20 c-3 -5 -11
-10 -16 -10 -6 0 -7 5 -4 10 3 6 11 10 16 10 6 0 7 -4 4 -10z m-50 -20 c-3 -5
-13 -10 -21 -10 -8 0 -12 5 -9 10 3 6 13 10 21 10 8 0 12 -4 9 -10z m-349 -27
c-10 -10 -19 5 -10 18 6 11 8 11 12 0 2 -7 1 -15 -2 -18z m424 -28 c0 -9 -7
-18 -16 -22 -18 -7 -39 11 -30 26 11 17 46 13 46 -4z m-296 -87 c-2 -94 -1
-88 -24 -88 -21 0 -27 -14 -11 -24 5 -4 21 -7 34 -8 14 -1 25 -5 24 -8 0 -3 9
-25 21 -49 28 -57 28 -66 -2 -44 -16 12 -20 20 -12 25 7 5 4 14 -10 29 -23 23
-64 19 -64 -6 0 -8 -4 -16 -9 -19 -5 -4 -5 10 0 31 4 21 4 42 0 48 -5 5 -11
26 -15 46 -5 31 -3 37 13 42 15 3 21 -1 24 -17 4 -20 11 75 8 102 -1 6 4 12
12 12 11 0 13 -17 11 -72z m216 26 c0 -8 -5 -12 -10 -9 -6 4 -8 11 -5 16 9 14
15 11 15 -7z m68 4 c-7 -19 -38 -22 -38 -4 0 10 9 16 21 16 12 0 19 -5 17 -12z
m-167 -83 c-13 -34 -21 -79 -21 -115 0 -67 -14 -80 -25 -22 -3 20 -12 46 -20
57 -7 12 -14 44 -16 73 -4 50 2 64 16 41 5 -7 12 -5 23 4 16 14 53 26 60 21 2
-2 -5 -28 -17 -59z m97 34 c-2 -6 -8 -10 -13 -10 -5 0 -11 4 -13 10 -2 6 4 11
13 11 9 0 15 -5 13 -11z m55 -14 c1 -5 -6 -11 -15 -13 -11 -2 -18 3 -18 13 0
17 30 18 33 0z m-374 -51 c-14 -18 -24 -11 -15 11 3 9 11 13 16 10 8 -5 7 -11
-1 -21z m299 9 c-4 -22 -22 -20 -26 1 -2 10 3 16 13 16 10 0 15 -7 13 -17z
m62 -13 c0 -12 -28 -25 -36 -17 -9 9 6 27 22 27 8 0 14 -5 14 -10z m-83 -28
c7 -4 9 -13 4 -21 -10 -16 -31 -6 -31 15 0 16 9 18 27 6z m53 -27 c0 -8 -7
-15 -15 -15 -9 0 -12 6 -9 15 4 8 10 15 15 15 5 0 9 -7 9 -15z m341 -8 c65
-43 113 -175 61 -165 -14 3 -110 159 -112 181 0 13 16 8 51 -16z m-661 -47 c0
-5 -2 -10 -4 -10 -3 0 -8 5 -11 10 -3 6 -1 10 4 10 6 0 11 -4 11 -10z m118
-130 c-6 -19 -17 -30 -28 -30 -10 0 -26 -3 -35 -6 -14 -6 -16 0 -13 41 4 60
28 75 29 18 l1 -38 10 45 10 45 18 -23 c15 -19 17 -28 8 -52z m352 13 c0 -9
-121 -55 -127 -49 -6 6 43 34 78 44 44 13 49 13 49 5z m-220 -17 c0 -5 -69
-46 -76 -46 -14 0 11 22 39 34 39 18 37 17 37 12z m12 -97 c-28 -29 -67 -71
-84 -95 -18 -24 -37 -44 -41 -44 -12 0 12 38 50 81 20 22 32 39 27 37 -5 -2
-10 2 -12 7 -2 6 5 12 15 14 10 2 20 6 23 10 6 7 63 40 70 41 2 0 -19 -23 -48
-51z m-102 -19 c0 -5 -4 -10 -10 -10 -5 0 -10 5 -10 10 0 6 5 10 10 10 6 0 10
-4 10 -10z m350 -29 c0 -9 -24 -21 -42 -21 -6 0 -6 6 2 15 14 16 40 20 40 6z
m-400 -11 c0 -5 -5 -10 -11 -10 -5 0 -7 5 -4 10 3 6 8 10 11 10 2 0 4 -4 4
-10z m45 -10 c-10 -11 -20 -18 -23 -15 -7 6 18 35 31 35 5 0 2 -9 -8 -20z
m-240 -69 c-7 -51 -18 -64 -29 -35 -10 26 -7 48 10 72 22 32 27 22 19 -37z
m475 45 c0 -7 -10 -26 -22 -42 -12 -16 -23 -30 -24 -32 0 -1 -11 -4 -22 -7
-19 -3 -18 1 10 46 30 47 58 64 58 35z m174 -20 c-4 -17 -13 -26 -25 -26 -24
0 -24 3 3 33 27 30 31 29 22 -7z m-468 -14 c-18 -35 -36 -50 -36 -29 0 16 40
70 47 63 2 -2 -3 -18 -11 -34z m-44 -22 c-2 -16 -11 -35 -20 -42 -13 -11 -15
-10 -10 3 4 9 1 22 -5 28 -9 10 -7 16 7 27 28 20 33 18 28 -16z m-642 -5 c0
-8 -7 -15 -16 -15 -8 0 -12 -4 -9 -10 3 -5 1 -10 -4 -10 -15 0 -14 23 1 38 16
16 28 15 28 -3z m1069 1 c6 -7 10 -25 9 -39 -2 -27 20 -77 34 -77 18 0 7 -57
-17 -82 -14 -15 -26 -35 -26 -45 -1 -17 -2 -17 -6 0 -2 9 -9 17 -15 17 -7 0
-9 15 -5 41 4 29 0 49 -13 72 -21 35 -21 69 -1 105 14 25 24 28 40 8z m-453
-68 c11 -1 29 4 39 12 17 14 17 14 6 -7 -22 -42 -91 -43 -91 -2 0 16 3 19 13
11 6 -5 21 -12 33 -14z m159 -136 c-35 -2 -81 -18 -95 -32 -11 -11 -52 -31
-56 -27 -13 13 13 35 59 50 75 23 79 24 107 18 20 -5 18 -7 -15 -9z m385 -278
c0 -8 -4 -12 -10 -9 -5 3 -10 10 -10 16 0 5 5 9 10 9 6 0 10 -7 10 -16z m-370
-25 c0 -5 4 -8 10 -4 5 3 17 1 27 -4 10 -5 29 -14 43 -19 23 -10 22 -11 -15
-11 -25 0 -49 7 -62 18 -25 21 -29 31 -13 31 6 0 10 -5 10 -11z"/>
<path d="M1235 1770 c-3 -5 -1 -10 4 -10 6 0 11 5 11 10 0 6 -2 10 -4 10 -3 0
-8 -4 -11 -10z"/>
<path d="M1746 995 c4 -8 8 -15 10 -15 2 0 4 7 4 15 0 8 -4 15 -10 15 -5 0 -7
-7 -4 -15z"/>
</g>
</svg>
